name rise49.5252peak65.1548fall88.8305.mot
datacolumns 19
datarows 24
range 8.92996100000000 8.96829300000000
endheader
time	ground_force1_vx	ground_force1_vy	ground_force1_vz	ground_force1_px	ground_force1_py	ground_force1_pz	ground_force2_vx	ground_force2_vy	ground_force2_vz	ground_force2_px	ground_force2_py	ground_force2_pz	ground_torque1_x	ground_torque1_y	ground_torque1_z	ground_torque2_x	ground_torque2_y	ground_torque2_z	
8.92996100000000	72.41975200000000	803.45826399999999	59.59356500000000	0.40164400000000	0.00000000000000	0.11817600000000	0.00000000000000	0.00000000000000	0.00000000000000	0.00000000000000	0.00000000000000	0.00000000000000	0.00000000000000	29.73457800000000	0.00000000000000	0.00000000000000	0.00000000000000	0.00000000000000	
8.93162900000000	71.55843800000000	805.51195499999994	59.59318900000000	0.40063000000000	0.00000000000000	0.11821500000000	0.00000000000000	0.00000000000000	0.00000000000000	0.00000000000000	0.00000000000000	0.00000000000000	0.00000000000000	29.76761400000000	0.00000000000000	0.00000000000000	0.00000000000000	0.00000000000000	
8.93329100000000	70.68886100000000	807.38452900000004	59.58792300000000	0.39962600000000	0.00000000000000	0.11825700000000	0.00000000000000	0.00000000000000	0.00000000000000	0.00000000000000	0.00000000000000	0.00000000000000	0.00000000000000	29.79945000000000	0.00000000000000	0.00000000000000	0.00000000000000	0.00000000000000	
8.93496200000000	69.81225600000000	809.07575299999996	59.57821600000000	0.39863100000000	0.00000000000000	0.11830000000000	0.00000000000000	0.00000000000000	0.00000000000000	0.00000000000000	0.00000000000000	0.00000000000000	0.00000000000000	29.83030300000000	0.00000000000000	0.00000000000000	0.00000000000000	0.00000000000000	
8.93662900000000	68.92977700000000	810.58564899999999	59.56443700000000	0.39764600000000	0.00000000000000	0.11834400000000	0.00000000000000	0.00000000000000	0.00000000000000	0.00000000000000	0.00000000000000	0.00000000000000	0.00000000000000	29.86033200000000	0.00000000000000	0.00000000000000	0.00000000000000	0.00000000000000	
8.93829000000000	68.04250200000000	811.91450599999996	59.54688000000000	0.39667100000000	0.00000000000000	0.11839000000000	0.00000000000000	0.00000000000000	0.00000000000000	0.00000000000000	0.00000000000000	0.00000000000000	0.00000000000000	29.88964200000000	0.00000000000000	0.00000000000000	0.00000000000000	0.00000000000000	
8.93997400000000	67.15143399999999	813.06288800000004	59.52576500000000	0.39570400000000	0.00000000000000	0.11843800000000	0.00000000000000	0.00000000000000	0.00000000000000	0.00000000000000	0.00000000000000	0.00000000000000	0.00000000000000	29.91827800000000	0.00000000000000	0.00000000000000	0.00000000000000	0.00000000000000	
8.94162700000000	66.25749999999999	814.03164300000003	59.50123800000000	0.39474500000000	0.00000000000000	0.11848800000000	0.00000000000000	0.00000000000000	0.00000000000000	0.00000000000000	0.00000000000000	0.00000000000000	0.00000000000000	29.94623600000000	0.00000000000000	0.00000000000000	0.00000000000000	0.00000000000000	
8.94329400000000	65.36155599999999	814.82190900000001	59.47338100000000	0.39379300000000	0.00000000000000	0.11853900000000	0.00000000000000	0.00000000000000	0.00000000000000	0.00000000000000	0.00000000000000	0.00000000000000	0.00000000000000	29.97346200000000	0.00000000000000	0.00000000000000	0.00000000000000	0.00000000000000	
8.94496500000000	64.46438499999999	815.43512199999998	59.44221000000000	0.39284900000000	0.00000000000000	0.11859100000000	0.00000000000000	0.00000000000000	0.00000000000000	0.00000000000000	0.00000000000000	0.00000000000000	0.00000000000000	29.99985500000000	0.00000000000000	0.00000000000000	0.00000000000000	0.00000000000000	
8.94663000000000	63.56670600000000	815.87301500000001	59.40768200000000	0.39191000000000	0.00000000000000	0.11864600000000	0.00000000000000	0.00000000000000	0.00000000000000	0.00000000000000	0.00000000000000	0.00000000000000	0.00000000000000	30.02527000000000	0.00000000000000	0.00000000000000	0.00000000000000	0.00000000000000	
8.94829000000000	62.66917100000000	816.13762499999996	59.36969800000000	0.39097500000000	0.00000000000000	0.11870200000000	0.00000000000000	0.00000000000000	0.00000000000000	0.00000000000000	0.00000000000000	0.00000000000000	0.00000000000000	30.04952300000000	0.00000000000000	0.00000000000000	0.00000000000000	0.00000000000000	
8.94995800000000	61.77237000000000	816.23129500000005	59.32811000000000	0.39004500000000	0.00000000000000	0.11875900000000	0.00000000000000	0.00000000000000	0.00000000000000	0.00000000000000	0.00000000000000	0.00000000000000	0.00000000000000	30.07239300000000	0.00000000000000	0.00000000000000	0.00000000000000	0.00000000000000	
8.95163200000000	60.87683600000000	816.15666899999997	59.28272500000000	0.38911700000000	0.00000000000000	0.11881800000000	0.00000000000000	0.00000000000000	0.00000000000000	0.00000000000000	0.00000000000000	0.00000000000000	0.00000000000000	30.09362700000000	0.00000000000000	0.00000000000000	0.00000000000000	0.00000000000000	
8.95329700000000	59.98304500000000	815.91669400000001	59.23330900000000	0.38819100000000	0.00000000000000	0.11887800000000	0.00000000000000	0.00000000000000	0.00000000000000	0.00000000000000	0.00000000000000	0.00000000000000	0.00000000000000	30.11294300000000	0.00000000000000	0.00000000000000	0.00000000000000	0.00000000000000	
8.95495900000000	59.09142300000000	815.51461300000005	59.17959400000000	0.38726500000000	0.00000000000000	0.11894000000000	0.00000000000000	0.00000000000000	0.00000000000000	0.00000000000000	0.00000000000000	0.00000000000000	0.00000000000000	30.13003500000000	0.00000000000000	0.00000000000000	0.00000000000000	0.00000000000000	
8.95662800000000	58.20234900000000	814.95396600000004	59.12128200000000	0.38633700000000	0.00000000000000	0.11900400000000	0.00000000000000	0.00000000000000	0.00000000000000	0.00000000000000	0.00000000000000	0.00000000000000	0.00000000000000	30.14457500000000	0.00000000000000	0.00000000000000	0.00000000000000	0.00000000000000	
8.95830900000000	57.31615700000000	814.23857699999996	59.05805400000000	0.38540700000000	0.00000000000000	0.11906800000000	0.00000000000000	0.00000000000000	0.00000000000000	0.00000000000000	0.00000000000000	0.00000000000000	0.00000000000000	30.15622000000000	0.00000000000000	0.00000000000000	0.00000000000000	0.00000000000000	
8.95995900000000	56.43314200000000	813.37255000000005	58.98957200000000	0.38447300000000	0.00000000000000	0.11913400000000	0.00000000000000	0.00000000000000	0.00000000000000	0.00000000000000	0.00000000000000	0.00000000000000	0.00000000000000	30.16461500000000	0.00000000000000	0.00000000000000	0.00000000000000	0.00000000000000	
8.96163200000000	55.55356300000000	812.36026200000003	58.91548500000000	0.38353400000000	0.00000000000000	0.11920200000000	0.00000000000000	0.00000000000000	0.00000000000000	0.00000000000000	0.00000000000000	0.00000000000000	0.00000000000000	30.16939600000000	0.00000000000000	0.00000000000000	0.00000000000000	0.00000000000000	
8.96329300000000	54.67764800000000	811.20634500000006	58.83543600000000	0.38258700000000	0.00000000000000	0.11927100000000	0.00000000000000	0.00000000000000	0.00000000000000	0.00000000000000	0.00000000000000	0.00000000000000	0.00000000000000	30.17019400000000	0.00000000000000	0.00000000000000	0.00000000000000	0.00000000000000	
8.96495600000000	53.80559500000000	809.91568400000006	58.74906700000000	0.38163200000000	0.00000000000000	0.11934100000000	0.00000000000000	0.00000000000000	0.00000000000000	0.00000000000000	0.00000000000000	0.00000000000000	0.00000000000000	30.16664000000000	0.00000000000000	0.00000000000000	0.00000000000000	0.00000000000000	
8.96662700000000	52.93758100000000	808.49339599999996	58.65602300000000	0.38066600000000	0.00000000000000	0.11941200000000	0.00000000000000	0.00000000000000	0.00000000000000	0.00000000000000	0.00000000000000	0.00000000000000	0.00000000000000	30.15837100000000	0.00000000000000	0.00000000000000	0.00000000000000	0.00000000000000	
8.96829300000000	52.07375900000000	806.94482000000005	58.55595900000000	0.37968900000000	0.00000000000000	0.11948500000000	0.00000000000000	0.00000000000000	0.00000000000000	0.00000000000000	0.00000000000000	0.00000000000000	0.00000000000000	30.14502900000000	0.00000000000000	0.00000000000000	0.00000000000000	0.00000000000000	
